<svg width="188" height="289" viewBox="0 0 188 289" fill="none" xmlns="http://www.w3.org/2000/svg">
<path d="M123.765 271.514C126.624 270.561 129.423 269.435 132.145 268.143C157.534 256.06 122.401 244.204 111.953 242.482C97.1157 240.007 81.8176 239.68 66.827 240.086C57.4895 240.333 15.5525 239.561 12.6317 252.01C8.33735 270.316 56.3242 274.112 66.9262 275.167C85.9484 277.013 105.823 277.538 123.765 271.514Z" fill="#3D280E"/>
<path d="M116.242 282.438C112.746 280.924 109.007 278.642 108.258 274.909C107.296 270.078 111.888 265.935 116.406 263.955C122.63 261.236 129.52 260.411 136.211 261.584C133.504 261.465 132.576 257.411 134.292 255.317C136.008 253.223 138.993 252.753 141.701 252.644C151.326 252.268 160.817 254.664 170.15 257.045C173.09 257.792 176.323 258.757 177.876 261.351C180.137 265.123 177.246 270.261 173.204 272.009C169.163 273.756 164.541 273.068 160.197 272.365C161.693 273.73 162.661 275.576 162.933 277.58C163.204 279.585 162.763 281.621 161.685 283.334C158.273 288.448 147.731 288.096 142.286 288.017C133.321 287.886 124.471 285.99 116.242 282.438Z" fill="#3D280E"/>
<path d="M75.6339 267.024C89.6824 270.301 104.132 270.326 118.424 268.405C139.687 265.549 150.215 240.714 155.918 222.315C158.124 215.182 170.041 142.956 162.816 139.407C156.865 136.482 141.949 142.125 135.393 142.684C124.905 143.58 114.358 143.674 103.845 143.441C79.1399 142.946 54.7125 139.481 30.3051 142.55C28.2223 165.593 34.6689 212.499 43.694 233.68C50.0611 246.392 57.8069 261.183 72.3909 266.103C73.4223 266.46 74.5132 266.752 75.6339 267.024Z" fill="#F0ECE2"/>
<path d="M121.285 260.341C106.994 262.262 92.5238 262.237 78.5002 258.965C77.3795 258.705 76.2902 258.396 75.2323 258.04C60.6533 253.119 52.9174 238.333 46.5403 225.622C38.4723 206.604 32.4522 166.86 32.8142 142.258C31.9762 142.347 31.1382 142.446 30.3051 142.55C28.2223 165.593 34.6689 212.499 43.694 233.68C50.0611 246.392 57.8069 261.183 72.3909 266.103C73.4421 266.46 74.5331 266.762 75.6538 267.024C89.7022 270.301 104.152 270.326 118.444 268.405C138.577 265.702 149.08 243.298 154.981 225.305C148.683 241.338 138.507 258.035 121.285 260.341Z" fill="#C7B198"/>
<path d="M123.849 262.039C108.784 264.019 93.5553 264.019 78.7481 260.614C77.5679 260.34 76.4208 260.021 75.3067 259.658C46.7486 250.204 39.836 213.935 35.2689 188.541C32.5364 173.364 30.9254 158.008 30.4489 142.595C29.8846 148.916 29.719 155.266 29.953 161.608C23.4172 158.945 15.5723 161.271 10.4498 166.132C-6.54912 182.294 -0.271212 208.495 14.8335 223.553C18.5883 227.35 22.9676 230.475 27.781 232.794C30.2386 233.966 32.8133 234.875 35.4623 235.507C37.4062 235.962 42.0774 235.477 43.5651 236.368C47.914 238.977 51.7125 249.159 55.1688 253.387C59.7458 258.97 65.4386 263.782 72.371 266.103C73.4223 266.46 74.5133 266.762 75.634 267.024C89.6824 270.301 104.132 270.326 118.424 268.405C127.697 267.158 134.932 261.732 140.61 254.476C135.869 258.426 130.335 261.183 123.849 262.039ZM37.7632 216.192C37.7632 216.875 37.7632 217.548 37.7136 218.217C37.4805 222.177 37.7136 222.899 33.2506 222.988C30.5629 223.038 27.8207 221.835 25.5694 220.479C16.0831 214.776 9.3688 200.486 10.4201 189.531C11.3424 179.983 18.6567 169.652 29.3728 171.642C32.7795 172.295 32.7052 187.125 33.0622 189.714C34.2077 198.006 37.6789 207.668 37.7632 216.192Z" fill="#C7B198"/>
<path d="M162.855 140.358C162.568 137.556 160.956 134.685 157.485 131.997C140.506 118.899 24.1512 112.291 30.8307 147.342C34.5995 167.256 93.6842 163.296 106.815 162.593C121.31 161.836 139.415 161.187 152.635 154.406H152.665C158.655 151.312 163.435 145.971 162.855 140.358Z" fill="#F0ECE2"/>
<path d="M157.113 140.169C156.85 137.873 155.367 135.531 152.189 133.333C136.682 122.627 30.4241 117.226 36.5235 145.867C39.9947 162.143 93.947 158.895 105.947 158.336C119.183 157.722 135.701 157.188 147.79 151.649H147.82C153.28 149.119 157.639 144.753 157.113 140.169Z" fill="#C7B198"/>
<path d="M41.155 151.911C55.1787 161.217 95.7371 158.796 105.937 158.346C119.173 157.732 135.691 157.198 147.78 151.658H147.81C148.955 151.136 150.057 150.522 151.103 149.822C135.324 141.184 61.0004 136.566 41.155 151.911Z" fill="#45301C"/>
<path d="M85.9286 142.011C110.113 143.06 132.859 147.659 142.742 153.629C144.457 153.072 146.139 152.419 147.78 151.673H147.81C148.956 151.151 150.057 150.537 151.103 149.837C141.874 144.758 112.602 141.09 85.9286 142.011Z" fill="#362512"/>
<path d="M148.98 153.658C148.286 154.262 142.613 155.411 141.393 155.802C137.315 157.05 133.152 158.003 128.937 158.653C123.482 159.578 118.002 160.138 112.508 160.524C109.676 160.732 106.845 160.88 104.018 161.088C102.68 161.192 101.331 161.266 99.9918 161.41C98.6529 161.553 96.5454 162.341 95.395 161.776C95.385 161.771 95.374 161.769 95.3629 161.768C95.3518 161.768 95.3408 161.77 95.3305 161.774C95.3202 161.778 95.3109 161.785 95.3032 161.793C95.2955 161.801 95.2896 161.81 95.2859 161.821C94.2941 165.004 106.071 163.925 107.653 163.855C121.117 163.286 138.289 162.979 148.98 153.658Z" fill="#EEE5C9"/>
<path d="M82.9334 161.945C79.3382 161.514 75.6637 161.638 72.0537 161.4C68.4436 161.162 64.8584 160.524 61.2533 160.361C60.7574 160.361 60.688 161.068 61.1392 161.207C64.6104 162.296 68.4436 162.623 72.0487 162.88C75.6538 163.137 79.4473 163.316 83.0177 162.608C83.4293 162.529 83.2805 161.984 82.9334 161.945Z" fill="#EEE5C9"/>
<path d="M116.465 142.105C113.391 141.313 110.019 141.437 106.875 141.273C103.404 141.095 99.9323 140.942 96.4314 140.858C89.6999 140.649 82.9619 140.844 76.2538 141.442C64.4369 142.58 52.0248 145.278 41.7898 151.54C41.6747 151.605 41.5904 151.714 41.5556 151.842C41.5207 151.969 41.5381 152.105 41.6038 152.22C41.6696 152.335 41.7783 152.419 41.9062 152.454C42.0341 152.489 42.1706 152.472 42.2857 152.406C49.2364 149.114 56.5329 146.605 64.0401 144.926C63.9241 145.01 63.8298 145.12 63.7651 145.248C63.7004 145.375 63.6672 145.516 63.6682 145.659C63.6721 145.906 63.772 146.142 63.947 146.316C64.1219 146.491 64.3581 146.591 64.6055 146.595C64.8536 146.593 65.0912 146.494 65.2667 146.319C65.4422 146.144 65.5414 145.907 65.5427 145.659C65.533 145.455 65.46 145.258 65.3339 145.097C65.2079 144.936 65.0348 144.817 64.8385 144.758L65.0964 144.704C65.1734 144.9 65.322 145.06 65.5123 145.152C65.7027 145.244 65.9208 145.261 66.1229 145.199C66.3229 145.135 66.5082 145.032 66.6683 144.897C66.7426 144.825 66.8002 144.737 66.8371 144.641C66.8739 144.544 66.8891 144.441 66.8816 144.337C70.4054 143.648 73.9622 143.139 77.5381 142.813C83.8173 142.276 90.1209 142.077 96.4215 142.219C99.7439 142.278 103.066 142.389 106.389 142.55C109.657 142.709 113.108 143.248 116.356 142.818C116.748 142.783 116.906 142.219 116.465 142.105Z" fill="#87602D"/>
<path d="M125.748 143.773C124.047 143.287 122.301 142.975 120.536 142.842C120.224 142.813 120.16 143.337 120.462 143.392C122.179 143.814 123.936 144.058 125.704 144.12C125.745 144.117 125.783 144.1 125.813 144.071C125.843 144.043 125.863 144.005 125.868 143.965C125.873 143.924 125.864 143.882 125.842 143.847C125.82 143.813 125.787 143.786 125.748 143.773Z" fill="#543B22"/>
<path d="M129.998 149.807C124.117 148.035 117.373 147.995 111.283 147.684C104.742 147.347 98.1819 147.322 91.6411 147.599C85.5021 147.86 79.3862 148.41 73.2934 149.248C68.1858 149.956 62.4732 150.649 58.516 154.272C58.4766 154.317 58.454 154.374 58.4519 154.433C58.4499 154.493 58.4686 154.551 58.5049 154.599C58.5411 154.646 58.5927 154.679 58.6508 154.693C58.7089 154.706 58.7699 154.699 58.8235 154.673C64.0005 151.772 69.485 150.896 75.3116 150.218C81.3515 149.515 87.4212 149.045 93.5007 148.842C99.4216 148.644 105.346 148.697 111.273 149C117.442 149.317 123.73 150.579 129.894 150.485C129.974 150.48 130.049 150.448 130.108 150.394C130.167 150.339 130.206 150.267 130.218 150.188C130.23 150.109 130.215 150.028 130.175 149.959C130.135 149.89 130.072 149.836 129.998 149.807Z" fill="#87602D"/>
<path d="M113.544 156.128C112.716 154.411 109.21 154.599 107.648 154.421C101.202 153.688 94.0561 153.381 87.6988 154.891C87.6573 154.901 87.6209 154.926 87.5967 154.961C87.5725 154.996 87.5622 155.039 87.5677 155.082C87.5733 155.124 87.5943 155.163 87.6267 155.191C87.6591 155.218 87.7007 155.233 87.7434 155.232C91.6758 155.153 95.5636 154.737 99.5058 154.836C101.321 154.886 103.136 155 104.961 155.173C106.118 155.288 107.275 155.427 108.432 155.589C109.032 155.673 109.627 155.762 110.222 155.861C110.641 155.842 111.056 155.948 111.413 156.166C111.771 156.384 112.056 156.703 112.23 157.084C112.076 157.084 111.929 157.145 111.82 157.253C111.711 157.362 111.65 157.509 111.65 157.663C111.65 157.816 111.711 157.964 111.82 158.072C111.929 158.181 112.076 158.242 112.23 158.242C112.482 158.247 112.73 158.187 112.951 158.067C113.172 157.948 113.358 157.772 113.491 157.559C113.624 157.346 113.698 157.102 113.708 156.851C113.717 156.6 113.661 156.351 113.544 156.128Z" fill="#87602D"/>
<path d="M135.229 150.223C134.6 150.055 133.563 150.134 133.33 150.866C133.239 150.977 133.183 151.113 133.169 151.255C133.155 151.398 133.184 151.542 133.251 151.668C133.31 151.766 133.394 151.846 133.494 151.9C133.594 151.954 133.707 151.98 133.821 151.975C133.928 152.014 134.04 152.037 134.153 152.045C134.244 152.062 134.336 152.062 134.426 152.045H134.644H134.674H134.724C134.845 152.085 134.974 152.1 135.101 152.09C135.229 152.079 135.353 152.042 135.466 151.982C135.579 151.922 135.679 151.839 135.759 151.739C135.838 151.639 135.897 151.524 135.931 151.4C135.965 151.277 135.973 151.148 135.955 151.021C135.937 150.895 135.894 150.773 135.827 150.664C135.76 150.554 135.672 150.46 135.568 150.386C135.463 150.312 135.345 150.26 135.22 150.233L135.229 150.223Z" fill="#87602D"/>
<path d="M124.895 143.793C124.895 143.753 124.895 143.733 124.895 143.719C124.894 143.56 124.852 143.404 124.773 143.266C124.694 143.128 124.581 143.013 124.444 142.932C124.008 142.724 123.338 142.729 123.135 143.263C123.05 143.463 123.033 143.685 123.087 143.895C123.141 144.105 123.262 144.292 123.432 144.426V144.456L123.492 144.555C123.492 144.585 123.522 144.669 123.522 144.669L123.586 144.803C123.588 144.887 123.604 144.97 123.631 145.05C123.654 145.123 123.7 145.187 123.761 145.233C123.822 145.279 123.896 145.305 123.973 145.308C124.059 145.311 124.146 145.297 124.227 145.266C124.308 145.236 124.381 145.189 124.444 145.129C124.444 145.129 124.603 144.976 124.503 145.065C124.644 144.968 124.75 144.83 124.806 144.669C124.874 144.495 124.914 144.311 124.925 144.125C124.928 144.013 124.918 143.902 124.895 143.793Z" fill="#543B22"/>
<path d="M125.004 146.342C124.979 146.152 124.894 145.975 124.763 145.835C124.631 145.695 124.459 145.599 124.271 145.562C124.083 145.524 123.887 145.546 123.712 145.625C123.537 145.704 123.39 145.835 123.293 146.001C123.191 146.178 123.15 146.384 123.176 146.587C123.202 146.79 123.294 146.978 123.437 147.124L123.472 147.154C123.611 147.282 123.786 147.364 123.974 147.388C124.161 147.412 124.352 147.377 124.518 147.288H124.563C124.726 147.196 124.857 147.055 124.936 146.886C125.015 146.716 125.039 146.526 125.004 146.342Z" fill="#422D16"/>
<path d="M133.058 146.02C132.897 146.024 132.74 146.067 132.6 146.147C132.461 146.226 132.344 146.339 132.259 146.476C132.158 146.653 132.118 146.859 132.144 147.062C132.17 147.264 132.261 147.453 132.403 147.599C132.489 147.679 132.582 147.75 132.681 147.812L132.71 147.842C132.803 147.934 132.929 147.986 133.06 147.986C133.191 147.986 133.317 147.934 133.41 147.842L133.434 147.812C133.535 147.752 133.628 147.68 133.712 147.599C133.839 147.469 133.925 147.305 133.959 147.126C133.993 146.948 133.975 146.763 133.905 146.595C133.835 146.427 133.718 146.283 133.567 146.181C133.417 146.079 133.24 146.023 133.058 146.02Z" fill="#543B22"/>
<path d="M142.212 149.51C142.183 149.405 142.121 149.313 142.034 149.247C141.948 149.181 141.842 149.145 141.733 149.145C141.624 149.145 141.518 149.181 141.432 149.247C141.345 149.313 141.283 149.405 141.254 149.51V149.753C141.254 149.884 141.307 150.01 141.4 150.103C141.493 150.196 141.619 150.248 141.75 150.248C141.882 150.248 142.008 150.196 142.101 150.103C142.194 150.01 142.246 149.884 142.246 149.753L142.212 149.51Z" fill="#543B22"/>
<path d="M72.138 143.862C72.0091 143.807 71.8687 143.785 71.7293 143.798C71.5898 143.811 71.4557 143.857 71.3388 143.934C71.2219 144.011 71.1259 144.116 71.0595 144.239C70.993 144.362 70.958 144.5 70.9578 144.639V144.709V144.679C70.9582 144.816 70.9941 144.951 71.0619 145.07C71.1331 145.189 71.2324 145.289 71.3513 145.362C71.4701 145.434 71.6049 145.476 71.7437 145.484C71.8826 145.493 72.0214 145.467 72.148 145.409C72.2747 145.352 72.3853 145.264 72.4702 145.154C72.5498 145.053 72.6049 144.934 72.6313 144.808C72.6577 144.682 72.6548 144.551 72.6227 144.427C72.5906 144.302 72.5302 144.186 72.4461 144.088C72.3621 143.99 72.2567 143.913 72.138 143.862Z" fill="#87602D"/>
<path d="M76.4819 153.396C76.3569 153.279 76.208 153.19 76.0454 153.135C75.8828 153.08 75.7104 153.061 75.5398 153.079C75.4167 153.079 75.2948 153.103 75.1811 153.15C75.0674 153.197 74.9641 153.266 74.877 153.353C74.79 153.44 74.721 153.543 74.6739 153.657C74.6268 153.77 74.6025 153.892 74.6025 154.015C74.6025 154.138 74.6268 154.259 74.6739 154.373C74.721 154.486 74.79 154.589 74.877 154.676C74.9641 154.763 75.0674 154.832 75.1811 154.879C75.2948 154.926 75.4167 154.95 75.5398 154.95C75.7104 154.968 75.8828 154.949 76.0454 154.894C76.208 154.84 76.3569 154.751 76.4819 154.633C76.6437 154.468 76.7342 154.246 76.7342 154.015C76.7342 153.783 76.6437 153.561 76.4819 153.396Z" fill="#87602D"/>
<path d="M81.3168 151.248C81.1032 151.121 80.8611 151.049 80.6127 151.04C80.5602 151.03 80.5064 151.03 80.454 151.04C80.2953 151.04 80.2953 151.04 80.454 151.04L80.216 151.069C80.1267 151.106 80.0374 151.145 79.9482 151.188C79.803 151.275 79.6869 151.402 79.6145 151.555C79.5421 151.707 79.5167 151.878 79.5416 152.045C79.567 152.208 79.6382 152.362 79.7469 152.487C79.8557 152.612 79.9976 152.704 80.1565 152.752C80.2457 152.792 80.2408 152.787 80.1267 152.752C80.2069 152.796 80.2917 152.831 80.3796 152.856L80.6176 152.931C80.8343 152.986 81.0639 152.962 81.2643 152.863C81.4647 152.763 81.6226 152.595 81.7092 152.39C81.7958 152.184 81.8054 151.953 81.7361 151.741C81.6667 151.529 81.5232 151.348 81.3317 151.233L81.3168 151.248Z" fill="#87602D"/>
<path d="M83.2904 154.485L83.1912 154.386C83.1241 154.323 83.0354 154.288 82.9433 154.288C82.8511 154.288 82.7625 154.323 82.6953 154.386L82.5962 154.485C82.3929 154.668 82.3334 154.822 82.3681 154.94C82.3929 155.148 82.6656 155.242 82.9433 155.242C83.221 155.242 83.4937 155.148 83.5235 154.94C83.5483 154.822 83.4937 154.668 83.2904 154.485Z" fill="#87602D"/>
<path d="M86.4641 151.985C86.3621 151.996 86.2678 152.045 86.1993 152.121C86.1308 152.197 86.093 152.296 86.093 152.398C86.093 152.501 86.1308 152.6 86.1993 152.676C86.2678 152.752 86.3621 152.801 86.4641 152.812C86.5661 152.801 86.6604 152.752 86.7289 152.676C86.7974 152.6 86.8353 152.501 86.8353 152.398C86.8353 152.296 86.7974 152.197 86.7289 152.121C86.6604 152.045 86.5661 151.996 86.4641 151.985Z" fill="#87602D"/>
<path d="M146.149 129.319C140.307 127.339 133.915 126.374 127.826 125.493C122.024 124.651 115.776 123.646 109.915 124.3C109.686 124.3 109.582 124.691 109.855 124.74C115.806 125.864 121.94 125.943 127.92 126.859C133.901 127.774 139.821 129.383 145.802 130.566C145.964 130.601 146.133 130.573 146.275 130.487C146.416 130.402 146.52 130.265 146.564 130.106C146.609 129.947 146.59 129.776 146.513 129.63C146.436 129.484 146.306 129.372 146.149 129.319Z" fill="#EEE5C9"/>
<path d="M26.4768 162.9C18.8005 161.549 11.2382 166.301 6.97363 172.409C2.47099 178.844 0.100659 189.239 4.04295 196.461C4.38015 197.075 5.18348 196.724 5.25291 196.134C5.62978 192.719 5.43639 189.204 5.78351 185.764C6.142 181.969 7.35579 178.303 9.33404 175.042C13.0681 169.023 19.2914 165.786 26.1941 164.964C27.2603 164.84 27.7611 163.123 26.4768 162.9Z" fill="#F0ECE2"/>
<path d="M52.2877 159.702C47.7503 158.767 43.4163 158.014 39.5286 155.312C35.6408 152.609 33.4341 148.966 31.768 144.644C31.6638 144.382 31.2225 144.392 31.2324 144.719C31.6093 154.421 42.9998 161.054 51.4149 162.87C53.4828 163.296 54.3407 160.128 52.2877 159.702Z" fill="#C7B198"/>
<path d="M159.394 245.65C152.595 246.085 145.152 249.456 143.278 255.995C141.378 262.613 146.322 269.717 152.7 272.365C159.077 275.013 166.321 274.216 173.056 272.711C179.398 271.286 190.575 265.128 186.916 256.767C183.38 248.724 167.199 245.155 159.394 245.65Z" fill="#6E4115"/>
<path d="M163.52 265.356C169.698 266.237 176.844 267.118 182.487 263.752C188.359 260.252 184.188 252.293 179.676 249.323C175.654 246.674 170.611 246.061 165.791 246.204C161.189 246.333 147.26 246.872 145.985 253.08C144.498 260.317 158.576 264.648 163.52 265.356Z" fill="#915821"/>
<path d="M186.063 259.416C185.367 258.923 184.59 258.558 183.767 258.337C183.534 258.233 183.301 258.134 183.058 258.045C182.367 257.649 181.596 257.417 180.801 257.366C180.573 257.302 180.345 257.243 180.112 257.188C179.519 256.841 178.875 256.591 178.203 256.446C177.635 256.379 177.062 256.369 176.492 256.416C175.833 256.297 175.178 256.183 174.509 256.079C174.43 256.042 174.354 256.001 174.28 255.956C173.522 255.416 173.74 254.837 172.57 254.664C172.115 254.648 171.661 254.686 171.216 254.778C170.083 255.032 168.903 254.993 167.789 254.664C165.935 254.119 164.273 253.456 162.335 253.228C160.396 253 158.581 254.05 156.761 253.783C155.114 253.54 154.534 252.352 152.843 252.322C151.142 252.33 149.445 252.484 147.77 252.783C147.706 252.623 147.591 252.488 147.444 252.399C147.296 252.31 147.124 252.271 146.952 252.288L146.02 252.377C145.864 252.379 145.715 252.439 145.6 252.544C145.485 252.648 145.412 252.791 145.395 252.946C144.478 253.604 143.907 254.634 145.271 255.421C146.114 255.916 147.488 255.421 148.395 255.386C150.337 255.287 152.284 255.318 154.222 255.48C155.126 255.756 156.012 256.087 156.875 256.47C160.177 257.911 163.569 256.663 166.862 257.955C167.773 258.375 168.783 258.529 169.778 258.401C172.029 258.193 173.219 258.579 175.297 259.237C176.447 259.637 177.671 259.777 178.882 259.648C181.917 259.292 182.849 260.302 184.595 262.415C184.717 262.551 184.876 262.649 185.053 262.696C185.229 262.744 185.416 262.74 185.59 262.684C185.764 262.628 185.918 262.522 186.034 262.381C186.149 262.239 186.221 262.067 186.241 261.886C186.279 261.398 186.208 260.907 186.033 260.45C186.117 260.393 186.186 260.318 186.234 260.229C186.283 260.14 186.31 260.042 186.313 259.941C186.316 259.84 186.294 259.739 186.251 259.648C186.207 259.557 186.143 259.477 186.063 259.416Z" fill="#6E4115"/>
<path d="M178.838 265.267C178.383 265.242 177.93 265.343 177.528 265.559C177.353 265.65 177.187 265.757 177.033 265.88C176.884 266.032 176.751 266.198 176.636 266.375C176.438 266.588 176.636 266.979 176.933 266.836C177.256 266.716 177.588 266.62 177.925 266.549C178.287 266.445 178.664 266.385 179.021 266.262C179.512 266.088 179.304 265.326 178.838 265.267Z" fill="#593511"/>
<path d="M183.33 257.663C181.55 256.777 179.661 256.876 177.732 256.708C175.252 256.485 173.244 255.277 170.869 254.659C166.951 253.634 162.86 253.941 158.873 253.411C155.119 252.916 151.539 251.02 147.785 252.421C147.369 252.58 147.607 253.193 148.013 253.139C151.524 252.674 154.906 254.094 158.343 254.565C161.581 255.015 164.864 254.971 168.087 255.555C171.404 256.124 174.236 258.03 177.593 258.297C179.576 258.45 181.386 258.366 183.182 259.44C183.561 259.749 183.972 260.018 184.406 260.242C184.64 260.312 184.868 260.396 185.091 260.495C185.088 260.618 185.123 260.739 185.19 260.842C185.257 260.946 185.354 261.026 185.468 261.074L185.701 261.148C185.814 261.19 185.936 261.201 186.055 261.179C186.174 261.157 186.284 261.104 186.375 261.024C188.021 259.411 184.377 258.188 183.33 257.663Z" fill="#593511"/>
<path d="M180.157 267.301C177.514 268.261 175.233 269.687 172.436 270.325C169.956 270.895 167.477 270.964 164.958 271.118C164.886 271.133 164.82 271.172 164.772 271.227C164.723 271.282 164.693 271.351 164.686 271.425C164.679 271.498 164.696 271.572 164.735 271.635C164.773 271.698 164.83 271.748 164.898 271.776C169.817 272.939 177.013 271.865 180.871 268.405C180.984 268.298 181.057 268.154 181.076 267.999C181.094 267.844 181.058 267.688 180.973 267.557C180.889 267.426 180.76 267.328 180.611 267.282C180.462 267.235 180.301 267.242 180.157 267.301Z" fill="#915821"/>
<path d="M182.349 265.668L182.274 265.722C182.147 265.838 182.061 265.991 182.028 266.159C181.995 266.327 182.016 266.501 182.089 266.656C182.163 266.811 182.283 266.938 182.435 267.02C182.586 267.101 182.759 267.132 182.929 267.108H183.018C183.14 267.086 183.256 267.035 183.356 266.961C183.456 266.887 183.537 266.791 183.594 266.681C183.651 266.57 183.682 266.448 183.684 266.324C183.686 266.2 183.66 266.076 183.607 265.964C183.554 265.852 183.476 265.753 183.378 265.675C183.281 265.598 183.167 265.544 183.046 265.517C182.924 265.49 182.798 265.492 182.677 265.521C182.556 265.551 182.444 265.608 182.349 265.687V265.668Z" fill="#915821"/>
<path d="M171.816 273.063C169.227 272.568 166.386 273.216 163.758 273.142C160.831 273.103 157.928 272.617 155.149 271.702C148.861 269.504 145.187 265.054 143.248 258.861C143.188 258.658 142.826 258.619 142.831 258.861C143.01 264.653 148.098 269.801 153.022 272.226C155.929 273.599 159.063 274.428 162.27 274.672C165.27 274.939 169.213 275.211 171.95 273.83C172.037 273.798 172.11 273.736 172.156 273.656C172.202 273.576 172.219 273.482 172.203 273.391C172.187 273.3 172.139 273.217 172.069 273.157C171.998 273.097 171.909 273.064 171.816 273.063Z" fill="#593511"/>
<path d="M142.058 256.911C135.552 254.342 127.181 254.218 122.555 259.475C117.928 264.732 119.361 273.548 124.112 278.78C128.862 284.012 135.953 286.453 142.866 287.997C149.377 289.447 162.468 288.611 162.736 279.25C162.994 270.256 149.551 259.866 142.058 256.911Z" fill="#6E4115"/>
<path d="M137.248 277.018C142.598 280.537 148.856 284.483 155.571 283.824C162.558 283.136 162.176 273.924 159.29 269.187C156.716 264.97 152.303 262.198 147.765 260.223C143.431 258.332 130.261 252.748 126.353 257.95C121.781 264.044 132.968 274.201 137.248 277.018Z" fill="#915821"/>
<path d="M160.797 281.359C160.362 280.607 159.798 279.937 159.131 279.379C158.963 279.181 158.784 278.988 158.601 278.795C158.132 278.129 157.518 277.577 156.805 277.181L156.24 276.716C155.841 276.136 155.355 275.622 154.797 275.191C154.298 274.879 153.768 274.619 153.215 274.414C152.66 274.018 152.099 273.622 151.529 273.241C151.48 273.167 151.42 273.102 151.375 273.023C150.904 272.192 151.375 271.751 150.349 271.078C149.934 270.861 149.495 270.695 149.04 270.583C147.877 270.324 146.8 269.772 145.911 268.979C144.423 267.667 143.174 266.326 141.448 265.267C139.722 264.207 137.6 264.385 136.028 263.341C134.605 262.401 134.585 261.039 133.053 260.272C131.469 259.535 129.825 258.937 128.138 258.485C128.145 258.31 128.095 258.138 127.996 257.993C127.897 257.849 127.754 257.74 127.588 257.683L126.685 257.356C126.539 257.293 126.374 257.284 126.221 257.331C126.068 257.378 125.937 257.479 125.852 257.614C124.712 257.827 123.75 258.54 124.652 259.866C125.213 260.693 126.7 260.856 127.568 261.198C129.415 261.954 131.21 262.834 132.938 263.831C133.658 264.478 134.339 265.167 134.977 265.895C137.411 268.682 141.111 269.004 143.6 271.642C144.263 272.43 145.134 273.017 146.114 273.335C148.296 274.122 149.233 275.003 150.875 276.523C151.767 277.397 152.842 278.063 154.024 278.473C156.999 279.463 157.415 280.81 158.115 283.537C158.174 283.711 158.282 283.865 158.424 283.982C158.567 284.099 158.74 284.173 158.923 284.198C159.105 284.222 159.292 284.195 159.46 284.119C159.628 284.043 159.772 283.922 159.875 283.77C160.124 283.332 160.275 282.846 160.316 282.344C160.424 282.33 160.526 282.289 160.614 282.225C160.702 282.162 160.773 282.078 160.821 281.98C160.869 281.883 160.891 281.775 160.887 281.667C160.883 281.558 160.852 281.453 160.797 281.359Z" fill="#6E4115"/>
<path d="M151.534 283.651C151.12 283.43 150.654 283.326 150.185 283.349C149.983 283.36 149.783 283.388 149.585 283.433C149.385 283.502 149.192 283.592 149.01 283.701C148.732 283.814 148.742 284.26 149.084 284.26C149.434 284.285 149.781 284.34 150.121 284.423C150.503 284.483 150.88 284.592 151.266 284.631C151.782 284.691 151.936 283.899 151.534 283.651Z" fill="#593511"/>
<path d="M159.027 278.538C157.763 276.934 155.962 276.201 154.247 275.196C152.03 273.904 150.701 271.905 148.767 270.291C145.579 267.633 141.641 266.128 138.175 263.89C134.907 261.787 132.408 258.445 128.302 258.144C127.846 258.109 127.806 258.782 128.198 258.911C131.669 260.015 134.183 262.811 137.163 264.752C139.975 266.583 143.04 267.979 145.797 269.905C148.554 271.83 150.413 274.899 153.419 276.607C155.204 277.622 156.915 278.33 158.115 280.117C158.329 280.569 158.591 280.998 158.898 281.394C159.083 281.564 159.259 281.744 159.424 281.933C159.366 282.045 159.344 282.172 159.361 282.297C159.377 282.422 159.432 282.539 159.518 282.631L159.701 282.805C159.789 282.892 159.897 282.954 160.017 282.986C160.136 283.017 160.262 283.016 160.381 282.983C162.617 282.206 159.771 279.478 159.027 278.538Z" fill="#593511"/>
<path d="M151.847 286.101C148.97 285.839 146.233 286.161 143.347 285.537C140.803 284.983 138.463 283.958 136.058 282.998C135.735 282.874 135.443 283.374 135.715 283.587C139.772 286.819 146.927 288.962 152.03 287.438C152.186 287.391 152.319 287.289 152.407 287.153C152.495 287.016 152.531 286.852 152.509 286.691C152.487 286.531 152.408 286.383 152.287 286.275C152.165 286.166 152.009 286.105 151.847 286.101Z" fill="#915821"/>
<path d="M154.599 285.562H154.509C154.342 285.614 154.195 285.718 154.091 285.859C153.987 286 153.931 286.171 153.931 286.346C153.931 286.522 153.987 286.692 154.091 286.833C154.195 286.975 154.342 287.079 154.509 287.131H154.599C154.723 287.166 154.855 287.173 154.982 287.149C155.11 287.125 155.23 287.072 155.334 286.994C155.437 286.916 155.521 286.815 155.579 286.7C155.637 286.584 155.667 286.456 155.667 286.327C155.667 286.197 155.637 286.069 155.579 285.953C155.521 285.838 155.437 285.737 155.334 285.659C155.23 285.581 155.11 285.528 154.982 285.504C154.855 285.48 154.723 285.487 154.599 285.522V285.562Z" fill="#915821"/>
<path d="M141.572 287.804C139.39 286.2 136.464 285.577 134.054 284.339C131.354 283.02 128.874 281.294 126.7 279.221C121.821 274.434 120.358 268.687 121.275 262.089C121.305 261.876 120.988 261.678 120.879 261.925C118.498 267.37 120.968 274.385 124.489 278.755C126.588 281.303 129.138 283.444 132.011 285.072C134.684 286.626 138.205 288.596 141.369 288.537C141.451 288.529 141.529 288.497 141.593 288.444C141.657 288.391 141.702 288.32 141.725 288.241C141.747 288.161 141.744 288.077 141.717 287.999C141.689 287.921 141.639 287.853 141.572 287.804Z" fill="#593511"/>
<path d="M130.147 270.053C129.125 268.073 127.147 266.989 126.487 264.638C125.793 262.163 126.437 260.094 127.28 257.812C127.301 257.738 127.296 257.66 127.267 257.589C127.238 257.518 127.186 257.459 127.12 257.421C127.054 257.382 126.977 257.367 126.901 257.377C126.825 257.387 126.754 257.421 126.7 257.475C123.725 261.183 125.213 268.662 129.889 270.39C130.092 270.464 130.211 270.217 130.147 270.053Z" fill="#593511"/>
<path d="M125.327 266.024H125.232C124.608 265.97 124.608 267.044 125.232 267.014H125.327C125.458 267.014 125.584 266.962 125.677 266.869C125.77 266.776 125.823 266.65 125.823 266.519C125.823 266.388 125.77 266.262 125.677 266.169C125.584 266.076 125.458 266.024 125.327 266.024Z" fill="#593511"/>
<path opacity="0.2" d="M113.896 33.1498C116.218 32.4504 118.499 31.6241 120.73 30.6748C123.829 29.3432 127.137 27.3187 127.791 24.012C128.57 20.0867 125.029 16.4435 121.196 15.2703C117.363 14.0971 113.262 14.5921 109.25 14.3347C105.238 14.0773 100.87 12.7161 98.9406 9.21146C98.2612 7.9789 97.9488 6.40974 98.648 5.18213C99.1985 4.19213 100.26 3.62287 101.286 3.15757C104.342 1.76676 107.593 0.850321 110.926 0.440002C104.946 1.16766 100.18 0.0638002 94.3834 2.99917C91.1701 4.62773 84.2475 9.82526 89.2262 13.6912C90.818 14.9287 93.0098 14.9238 94.9735 15.394C96.9372 15.8643 99.0646 17.3741 98.772 19.3541C98.5984 20.5371 97.6116 21.4232 96.6198 22.0964C91.304 25.705 84.4955 26.0267 78.0837 26.4623C62.0765 27.586 45.8015 30.2837 31.7779 38.0602C26.0752 41.2233 20.7196 45.312 17.2633 50.8313C15.5277 53.5984 14.288 56.905 14.9277 60.1077C16.1129 65.9883 22.723 68.8148 28.4654 70.572C40.0344 74.1064 51.8116 77.1704 63.8517 78.3931C73.0157 79.3187 82.9929 79.4177 90.2378 85.1053C92.9503 87.2338 95.1967 90.3375 95.1967 93.7827C95.1967 97.0349 93.109 100.005 90.4808 101.926C87.8526 103.846 84.6988 104.896 81.5896 105.886C74.5844 108.103 67.5279 110.151 60.4202 112.029C54.4101 113.617 47.2644 116.187 46.1139 122.285C45.4693 125.71 47.1454 129.274 49.7339 131.621C52.3224 133.967 55.6845 135.254 59.0714 136.125C63.6286 137.303 68.3296 137.813 72.981 138.566C75.3315 138.947 77.7415 139.417 79.7449 140.704C81.7482 141.991 83.2706 144.303 82.9483 146.644C82.626 148.985 79.9482 150.946 77.7663 149.985C80.3102 151.678 84.1235 149.579 84.793 146.6C85.4624 143.62 83.6872 140.521 81.2176 138.724C78.7481 136.927 75.6637 136.165 72.6884 135.432L59.5177 132.175C57.0879 131.571 54.5886 130.943 52.5753 129.453C50.562 127.963 49.1438 125.399 49.7636 122.978C50.3389 120.741 52.4166 119.246 54.4448 118.137C58.8974 115.697 63.7806 114.141 68.8255 113.553C67.4618 116.093 68.3296 119.389 70.2635 121.542C72.1975 123.696 74.9298 124.909 77.6622 125.834C81.8402 127.25 86.1803 128.135 90.58 128.468C93.7784 128.71 97.3934 128.834 99.5406 131.22C101.985 133.937 101.202 138.323 99.2629 141.422C97.324 144.521 94.4479 146.971 92.623 150.139C96.3868 147.664 99.9423 144.575 101.822 140.486C103.701 136.398 103.532 131.126 100.478 127.819C95.5983 122.537 86.8955 124.636 79.9879 122.602C77.1365 121.76 74.1711 119.513 74.429 116.558C74.6868 113.603 77.8109 111.979 80.5631 110.964C97.7306 104.628 116.44 102.678 132.938 94.7678C136.792 92.9165 141.081 89.5554 140.159 85.3875C139.722 83.4075 138.175 81.8779 136.549 80.6453C127.251 73.5074 114.789 72.3936 103.076 71.7996C91.3635 71.2056 78.9961 70.6661 69.128 64.33C64.908 61.6224 61.0252 56.8209 62.493 52.0342C63.4104 49.0345 66.1824 47.0099 68.9395 45.4902C82.5764 37.9464 98.9951 37.689 113.896 33.1498ZM109.518 80.7592C109.617 80.56 109.756 80.3833 109.927 80.2403C110.098 80.0972 110.296 79.9907 110.51 79.9276C110.671 79.8679 110.837 79.82 111.005 79.784C115.498 78.794 123.923 81.9423 123.675 87.4467C123.507 91.2582 119.505 93.5946 115.949 95.0004C107.212 98.4655 113.252 92.0304 117.07 89.1297C117.6 88.81 118.007 88.3219 118.226 87.7437C118.597 86.2587 116.649 85.4271 115.186 85.0113C113.667 84.5765 112.215 83.9352 110.872 83.1055C110.039 82.5808 109.146 81.67 109.518 80.7592ZM67.6651 71.2254C63.574 72.4431 56.9193 72.1214 50.562 70.478C43.2477 68.5821 36.3251 64.9191 34.1631 59.8057C30.5382 51.2273 38.0112 41.5649 46.6644 41.0303C47.7267 40.889 48.8068 40.9664 49.838 41.258C50.8298 41.6243 51.7373 42.5252 51.7373 43.5944C51.6908 44.2871 51.4291 44.9481 50.9885 45.4853C48.0925 49.4453 40.7881 52.1876 42.5138 58.1673C44.6411 65.5478 61.4169 69.7058 67.6651 71.2254Z" fill="#FFDEBF"/>
<path opacity="0.25" d="M110.653 67.5377C118.862 68.4771 126.998 69.9654 135.006 71.9927C139.172 73.0471 143.615 74.4677 146.139 77.9327C148.356 80.977 148.618 85.1449 147.463 88.7288C146.308 92.3126 143.907 95.3766 141.175 97.9705C147.964 94.9064 155.447 90.1445 155.888 82.7194C156.215 77.0863 152.025 71.9729 146.962 69.4583C141.899 66.9437 136.097 66.4883 130.464 66.0774L99.2232 63.8004C97.9488 63.7064 97.0612 63.444 95.8314 63.6965C99.605 66.8051 105.764 66.9833 110.653 67.5377Z" fill="#FFDEBF"/>
<path opacity="0.25" d="M126.13 115.429C122.629 113.424 117.442 115.32 114.05 116.83C110.346 118.488 105.799 122.037 106.295 126.547C106.79 131.269 112.171 132.903 115.85 134.576C118.697 135.868 120.903 139.155 119.168 142.179C117.516 145.065 114.065 145.545 111.129 146.337C110.232 146.585 110.386 148.035 111.358 147.995C115.915 147.797 121.379 146.119 124.533 142.615C126.021 140.976 126.824 138.551 125.971 136.516C125.351 135.031 123.988 134.041 122.684 133.081C120.308 131.368 112.88 129.279 111.452 127.26C106.181 119.795 121.593 115.484 126.507 115.667C126.383 115.583 126.244 115.503 126.13 115.429Z" fill="#FFDEBF"/>
<path d="M157.802 161.306C157.763 161.176 157.682 161.062 157.573 160.981C157.463 160.9 157.331 160.856 157.195 160.856C157.058 160.856 156.926 160.9 156.817 160.981C156.707 161.062 156.627 161.176 156.587 161.306C155.139 168.731 155.1 176.334 154.326 183.848C153.584 191.425 152.426 198.956 150.855 206.406C149.306 213.654 147.228 220.78 144.636 227.725C143.283 231.309 141.78 234.844 140.074 238.279C139.192 240.061 138.19 241.784 137.158 243.486C136.573 244.447 135.066 247.714 134.084 247.644C132.834 247.55 132.348 248.966 132.78 249.912C134.525 253.738 138.096 249.585 139.147 247.62C141.16 243.863 143.01 239.982 144.745 236.086C148.198 228.275 150.943 220.171 152.947 211.871C154.919 203.634 156.355 195.279 157.247 186.858C158.159 178.458 159.067 169.681 157.802 161.306Z" fill="#EEE5C9"/>
</svg>
