<svg width="184" height="39" viewBox="0 0 184 39" fill="none" xmlns="http://www.w3.org/2000/svg">
<path d="M0.8 3.36H6.6V13.68L15.28 3.36H22.2L11.24 16L21.64 30H14.6L6.6 19.24V30H0.8V3.36ZM33.3231 30.6C31.2431 30.6 29.4031 30.1467 27.8031 29.24C26.2298 28.3333 25.0031 27.0667 24.1231 25.44C23.2431 23.7867 22.8031 21.88 22.8031 19.72C22.8031 17.56 23.2298 15.6667 24.0831 14.04C24.9631 12.3867 26.1898 11.1067 27.7631 10.2C29.3631 9.29333 31.2031 8.84 33.2831 8.84C35.3631 8.84 37.1898 9.29333 38.7631 10.2C40.3631 11.08 41.5898 12.3333 42.4431 13.96C43.3231 15.5867 43.7631 17.4667 43.7631 19.6C43.7631 21.76 43.3231 23.68 42.4431 25.36C41.5898 27.0133 40.3631 28.3067 38.7631 29.24C37.1898 30.1467 35.3765 30.6 33.3231 30.6ZM33.2831 25.72C34.7231 25.72 35.8698 25.1733 36.7231 24.08C37.6031 22.96 38.0431 21.4933 38.0431 19.68C38.0431 17.8667 37.6031 16.4267 36.7231 15.36C35.8698 14.2667 34.7231 13.72 33.2831 13.72C31.8431 13.72 30.6831 14.2667 29.8031 15.36C28.9498 16.4267 28.5231 17.8667 28.5231 19.68C28.5231 21.4933 28.9498 22.96 29.8031 24.08C30.6831 25.1733 31.8431 25.72 33.2831 25.72ZM47.9438 9.4H53.4238L53.3038 12.08H53.4638C54.1571 11.0133 54.9971 10.2 55.9838 9.64C56.9971 9.08 58.1438 8.8 59.4238 8.8C61.7438 8.8 63.5571 9.69333 64.8638 11.48C66.1971 13.24 66.8638 15.7067 66.8638 18.88C66.8638 22.64 65.8771 25.5333 63.9038 27.56C61.9571 29.56 59.1704 30.56 55.5438 30.56C55.0904 30.56 54.4104 30.5333 53.5038 30.48V38.72H47.9438V9.4ZM56.1038 25.64C57.7838 25.64 59.0504 25.0933 59.9038 24C60.7838 22.9067 61.2238 21.3067 61.2238 19.2C61.2238 17.4933 60.9438 16.16 60.3838 15.2C59.8504 14.2133 59.1038 13.72 58.1438 13.72C57.2904 13.72 56.4638 14.0933 55.6638 14.84C54.8638 15.56 54.1438 16.6 53.5038 17.96V25.28C54.4104 25.52 55.2771 25.64 56.1038 25.64ZM73.2344 0.799999H79.6744V6H73.2344V0.799999ZM70.1144 25.16H73.9544V14.24H70.1144V9.4H79.5944V25.16H83.0344V30H70.1144V25.16ZM86.9719 3.36C87.7452 3.33333 89.2119 3.32 91.3719 3.32C93.5585 3.32 95.0385 3.33333 95.8119 3.36C98.5585 3.41333 100.719 4.14667 102.292 5.56C103.865 6.97333 104.652 8.93333 104.652 11.44C104.652 13.2267 104.252 14.8133 103.452 16.2C102.652 17.56 101.519 18.6133 100.052 19.36C98.6119 20.1067 96.9719 20.48 95.1319 20.48H92.5319V30H86.9719V3.36ZM94.8919 15.76C96.1985 15.76 97.2119 15.3867 97.9319 14.64C98.6785 13.8933 99.0519 12.88 99.0519 11.6C99.0519 9.25333 97.7585 8.08 95.1719 8.08H92.5319V15.76H94.8919ZM114.138 30.6C112.005 30.6 110.311 29.6933 109.058 27.88C107.805 26.0667 107.178 23.6 107.178 20.48C107.178 16.6933 108.138 13.8133 110.058 11.84C111.978 9.84 114.738 8.84 118.338 8.84C120.365 8.84 122.738 9.16 125.458 9.8V30H120.098L120.218 26.72H120.058C119.365 27.9733 118.511 28.9333 117.498 29.6C116.511 30.2667 115.391 30.6 114.138 30.6ZM115.338 25.68C116.165 25.68 116.978 25.24 117.778 24.36C118.578 23.48 119.325 22.3067 120.018 20.84V14.12C119.165 13.88 118.311 13.76 117.458 13.76C115.858 13.76 114.645 14.3067 113.818 15.4C113.018 16.4933 112.618 18.1067 112.618 20.24C112.618 21.92 112.858 23.2533 113.338 24.24C113.818 25.2 114.485 25.68 115.338 25.68ZM131.03 0.799999H136.67V12.4C137.496 11.1733 138.443 10.28 139.51 9.72C140.576 9.13333 141.803 8.84 143.19 8.84C145.403 8.84 147.136 9.50667 148.39 10.84C149.643 12.1467 150.27 13.9733 150.27 16.32V30H144.63V17.2C144.63 16.1333 144.363 15.3067 143.83 14.72C143.296 14.1067 142.576 13.8 141.67 13.8C140.683 13.8 139.736 14.1467 138.83 14.84C137.95 15.5067 137.23 16.4 136.67 17.52V30H131.03V0.799999ZM157.688 0.799999H164.128V6H157.688V0.799999ZM154.568 25.16H158.408V14.24H154.568V9.4H164.048V25.16H167.488V30H154.568V25.16ZM178.199 30.6C176.279 30.6 174.786 30.12 173.719 29.16C172.679 28.1733 172.159 26.7867 172.159 25V14.24H168.959V9.4H172.159V5C174.052 4.68 175.919 4.44 177.759 4.28V9.4H182.959V14.24H177.759V23.96C177.759 24.52 177.919 24.9467 178.239 25.24C178.586 25.5333 179.066 25.68 179.679 25.68C180.426 25.68 181.279 25.5067 182.239 25.16L183.479 29.4C181.772 30.2 180.012 30.6 178.199 30.6Z" fill="#EEF2F3"/>
</svg>
